<svg xmlns="http://www.w3.org/2000/svg" width="13" height="17.06" viewBox="0 0 13 17.06"><path d="M12.181,4A8.643,8.643,0,0,0,8.448,5.177a.663.663,0,0,0-.2.6c.083.169,3.6,5.689,3.6,5.689.522.845.95.711,1.089.667s.558-.169.511-1.156c-.05-1.153-.381-6.273-.422-6.512a.65.65,0,0,0-.489-.444A1.336,1.336,0,0,0,12.181,4Zm5.312,5.045a.52.52,0,0,0-.289.089,17.542,17.542,0,0,0-1.756,2.311s-.7.969-.711.978a.682.682,0,0,0,0,.822.719.719,0,0,0,.778.356.058.058,0,0,1,0,.022,7.991,7.991,0,0,1,.867-.245,24.051,24.051,0,0,0,3.134-.8A.633.633,0,0,0,19.76,12a.06.06,0,0,0,0-.022,5.984,5.984,0,0,0-1.933-2.867A.723.723,0,0,0,17.493,9.044ZM7.714,11.911a.605.605,0,0,0-.533.311,6.04,6.04,0,0,0-.289,2.756,2.438,2.438,0,0,0,.156.733.6.6,0,0,0,.511.333,17.6,17.6,0,0,0,2.8-.845s1.128-.353,1.133-.356a.688.688,0,0,0,.489-.667.738.738,0,0,0-.444-.756s-.8-.333-.8-.333A18.649,18.649,0,0,0,7.714,11.911Zm7.845,3.134a.781.781,0,0,0-.667,1.178l.444.733a18.1,18.1,0,0,0,1.756,2.711.578.578,0,0,0,.6.067A5.918,5.918,0,0,0,19.849,17a.6.6,0,0,0-.2-.578,19.21,19.21,0,0,0-2.756-.956s-1.12-.369-1.133-.378A.631.631,0,0,0,15.559,15.045Zm-3.111.8a.687.687,0,0,0-.378.244s-.553.667-.556.667A18.926,18.926,0,0,0,9.47,19.245a.672.672,0,0,0-.044.267.586.586,0,0,0,.156.333,6.061,6.061,0,0,0,3.289,1.2.555.555,0,0,0,.467-.356,16.917,16.917,0,0,0,.067-2.911v-1.2a.7.7,0,0,0-.467-.689A.877.877,0,0,0,12.448,15.845Z" transform="translate(-6.857 -3.997)"/></svg>