<svg xmlns="http://www.w3.org/2000/svg" xmlns:xlink="http://www.w3.org/1999/xlink" width="48.599" height="48.599" viewBox="0 0 48.599 48.599"><defs><style>.a{fill:url(#a);}</style><linearGradient id="a" x1="0.5" x2="0.5" y2="1" gradientUnits="objectBoundingBox"><stop offset="0" stop-color="#ccc"/><stop offset="0.134" stop-color="#e7e7e7"/><stop offset="0.268" stop-color="#ccc"/><stop offset="0.385" stop-color="#e7e7e7"/><stop offset="0.495" stop-color="#ccc"/><stop offset="0.609" stop-color="#e7e7e7"/><stop offset="0.753" stop-color="#ccc"/><stop offset="0.867" stop-color="#e7e7e7"/><stop offset="1" stop-color="#ccc"/></linearGradient></defs><path class="a" d="M34.2,2A1.823,1.823,0,0,1,36,3.575l.017.247v5.65a9.123,9.123,0,0,1,7.106,7.108h5.65a1.823,1.823,0,0,1,.247,3.628l-.247.017H43.309v4.252h5.467a1.823,1.823,0,0,1,1.806,1.575l.017.247a1.823,1.823,0,0,1-1.575,1.806l-.247.017H43.309v4.252h5.467a1.823,1.823,0,0,1,1.806,1.575l.017.247A1.823,1.823,0,0,1,49.024,36l-.247.017-5.65,0a9.123,9.123,0,0,1-7.106,7.105v5.65a1.823,1.823,0,0,1-3.628.247l-.017-.247v-5.47H28.12l0,5.47a1.823,1.823,0,0,1-1.575,1.806L26.3,50.6a1.823,1.823,0,0,1-1.806-1.575l-.017-.247,0-5.47h-4.25v5.47a1.823,1.823,0,0,1-1.575,1.806L18.4,50.6A1.823,1.823,0,0,1,16.6,49.024l-.017-.247V43.127a9.123,9.123,0,0,1-7.109-7.108H3.822a1.823,1.823,0,0,1-.247-3.628l.247-.017,5.467,0V28.12l-5.467,0a1.823,1.823,0,0,1-1.806-1.575L2,26.3a1.823,1.823,0,0,1,1.575-1.806l.247-.017,5.467,0V20.222l-5.467,0a1.823,1.823,0,0,1-1.806-1.575L2,18.4A1.823,1.823,0,0,1,3.575,16.6l.247-.017,5.65,0a9.123,9.123,0,0,1,7.108-7.105V3.822a1.823,1.823,0,0,1,3.628-.247l.017.247V9.287h4.25l0-5.465a1.823,1.823,0,0,1,1.575-1.806L26.3,2a1.823,1.823,0,0,1,1.806,1.575l.017.247,0,5.465h4.255V3.822a1.823,1.823,0,0,1,1.338-1.757l.237-.048Zm0,10.935H18.4A5.467,5.467,0,0,0,12.935,18.4V34.2A5.467,5.467,0,0,0,18.4,39.664H34.2A5.468,5.468,0,0,0,39.664,34.2V18.4A5.467,5.467,0,0,0,34.2,12.935Zm-7.885,6.087a7.29,7.29,0,1,1-7.29,7.29A7.29,7.29,0,0,1,26.311,19.022Zm0,3.645a3.645,3.645,0,1,0,3.645,3.645A3.645,3.645,0,0,0,26.311,22.666Z" transform="translate(-2 -2)"/></svg>