<svg xmlns="http://www.w3.org/2000/svg" xmlns:xlink="http://www.w3.org/1999/xlink" width="38.044" height="50.304" viewBox="0 0 38.044 50.304"><defs><style>.a{fill:url(#a);}</style><linearGradient id="a" x1="0.5" x2="0.5" y2="1" gradientUnits="objectBoundingBox"><stop offset="0" stop-color="#ccc"/><stop offset="0.475" stop-color="#e7e7e7"/><stop offset="1" stop-color="#ccc"/></linearGradient></defs><g transform="translate(-13.956 764.03)"><path class="a" d="M36.242,2A5.758,5.758,0,0,1,42,7.758V50.576A1.727,1.727,0,0,1,40.273,52.3S7.55,52.276,6.1,52.3s-2-.689-2.1-2.356S4,7.758,4,7.758A5.758,5.758,0,0,1,9.758,2Zm0,3.455H9.758a2.3,2.3,0,0,0-2.3,2.3V48.848H38.545V7.758A2.3,2.3,0,0,0,36.242,5.455Z" transform="translate(10 -766.03)"/><g transform="translate(-0.022 -0.878)"><path class="a" d="M31.636,8.909a2.3,2.3,0,0,1,2.3,2.3v4.606a2.3,2.3,0,0,1-2.3,2.3H13.212a2.3,2.3,0,0,1-2.3-2.3V11.212a2.3,2.3,0,0,1,2.3-2.3Zm-1.152,3.455H14.364v2.3H30.485Z" transform="translate(10.576 -751.515)"/><path class="a" d="M31.636,8.909a2.3,2.3,0,0,1,2.3,2.3v4.606a2.3,2.3,0,0,1-2.3,2.3H13.212a2.3,2.3,0,0,1-2.3-2.3V11.212a2.3,2.3,0,0,1,2.3-2.3Zm-1.152,3.455H14.364v2.3H30.485Z" transform="translate(10.576 -738.515)"/><path class="a" d="M31.636,8.909a2.3,2.3,0,0,1,2.3,2.3v4.606a2.3,2.3,0,0,1-2.3,2.3H13.212a2.3,2.3,0,0,1-2.3-2.3V11.212a2.3,2.3,0,0,1,2.3-2.3Zm-1.152,3.455H14.364v2.3H30.485Z" transform="translate(10.576 -764.515)"/></g></g></svg>