<svg xmlns="http://www.w3.org/2000/svg" width="18.08" height="18.08" viewBox="0 0 18.08 18.08"><path d="M12.04,3a9.04,9.04,0,1,0,9.04,9.04A9.04,9.04,0,0,0,12.04,3Zm0,.753,3.767,2.26h2.26v2.26l2.26,3.767-2.26,3.767v2.26h-2.26l-3.767,2.26-3.767-2.26H6.013v-2.26L3.753,12.04l2.26-3.767V6.013h2.26ZM8.273,6.013l.7,2.819L12.04,7.52,15.1,8.832l.7-2.819-3.767.753Zm-2.26,2.26.753,3.767-.753,3.767,2.819-.7L7.52,12.04,8.832,8.978Zm2.26,9.793,3.767-.753,3.767.753-.7-2.819L12.04,16.56,8.978,15.248Zm9.793-2.26-.753-3.767.753-3.767-2.819.7L16.56,12.04,15.248,15.1Z" transform="translate(-3 -3)"/></svg>