<svg xmlns="http://www.w3.org/2000/svg" xmlns:xlink="http://www.w3.org/1999/xlink" width="32" height="22.867" viewBox="0 0 32 22.867"><defs><style>.a{fill:url(#a);}</style><linearGradient id="a" x1="0.5" x2="0.5" y2="1" gradientUnits="objectBoundingBox"><stop offset="0" stop-color="#ccc"/><stop offset="0.234" stop-color="#e7e7e7"/><stop offset="0.502" stop-color="#ccc"/><stop offset="0.753" stop-color="#e7e7e7"/><stop offset="1" stop-color="#ccc"/></linearGradient></defs><path class="a" d="M28.668,9.5c-.014-.014-.035-.028-.056-.049A13.375,13.375,0,0,0,23.132,7.1,3.13,3.13,0,0,0,19.516,9.16c-.007.028-.021.049-.028.077a16.773,16.773,0,0,1,6.855,2.108,1.048,1.048,0,0,1-.538,1.948,1.074,1.074,0,0,1-.538-.147,16.1,16.1,0,0,0-8.188-1.941,16.1,16.1,0,0,0-8.188,1.941,1.049,1.049,0,1,1-1.075-1.8,16.773,16.773,0,0,1,6.855-2.108c-.007-.028-.021-.049-.028-.077A3.13,3.13,0,0,0,11.028,7.1a13.375,13.375,0,0,0-5.48,2.353c-.021.021-.042.035-.056.049C3.942,10.94,1.08,18.256,1.08,24.9a1.036,1.036,0,0,0,.133.517c1.7,2.995,5.717,4.091,7.372,4.419a2.99,2.99,0,0,0,.607.063,3.139,3.139,0,0,0,2.541-1.3l.363-.5a13.89,13.89,0,0,1-5.543-2.478,1.048,1.048,0,0,1,1.354-1.6c.056.049,3.134,2.541,9.173,2.541,6.066,0,9.145-2.513,9.173-2.541a1.048,1.048,0,0,1,1.354,1.6,13.89,13.89,0,0,1-5.543,2.478l.363.5a3.139,3.139,0,0,0,2.541,1.3,2.99,2.99,0,0,0,.607-.063c1.654-.328,5.668-1.424,7.372-4.419a1.036,1.036,0,0,0,.133-.517C33.08,18.256,30.218,10.94,28.668,9.5ZM12.563,23.01a2.607,2.607,0,0,1-2.415-2.764,2.607,2.607,0,0,1,2.415-2.764,2.607,2.607,0,0,1,2.422,2.764A2.607,2.607,0,0,1,12.563,23.01Zm9.012.056a2.636,2.636,0,0,1-2.443-2.792,2.636,2.636,0,0,1,2.443-2.792,2.632,2.632,0,0,1,2.443,2.792A2.632,2.632,0,0,1,21.576,23.066Z" transform="translate(-1.08 -7.033)"/></svg>