<svg xmlns="http://www.w3.org/2000/svg" width="18.311" height="13.085" viewBox="0 0 18.311 13.085"><defs><style>.a{fill:#212429;}</style></defs><path class="a" d="M16.866,8.446c-.008-.008-.02-.016-.032-.028A7.654,7.654,0,0,0,13.7,7.071,1.791,1.791,0,0,0,11.63,8.25c0,.016-.012.028-.016.044A9.6,9.6,0,0,1,15.536,9.5a.6.6,0,0,1-.308,1.114.615.615,0,0,1-.308-.084,9.21,9.21,0,0,0-4.686-1.11,9.21,9.21,0,0,0-4.686,1.11A.6.6,0,0,1,4.935,9.5,9.6,9.6,0,0,1,8.857,8.294c0-.016-.012-.028-.016-.044A1.791,1.791,0,0,0,6.772,7.071,7.654,7.654,0,0,0,3.636,8.418c-.012.012-.024.02-.032.028-.887.823-2.525,5.009-2.525,8.812a.593.593,0,0,0,.076.3c.975,1.714,3.272,2.341,4.218,2.529a1.711,1.711,0,0,0,.348.036,1.8,1.8,0,0,0,1.454-.743l.208-.284a7.948,7.948,0,0,1-3.172-1.418.6.6,0,0,1,.775-.915,8.616,8.616,0,0,0,5.249,1.454,8.6,8.6,0,0,0,5.249-1.454.6.6,0,0,1,.775.915,7.948,7.948,0,0,1-3.172,1.418l.208.284a1.8,1.8,0,0,0,1.454.743,1.711,1.711,0,0,0,.348-.036c.947-.188,3.244-.815,4.218-2.529a.593.593,0,0,0,.076-.3C19.391,13.455,17.753,9.268,16.866,8.446ZM7.651,16.175a1.492,1.492,0,0,1-1.382-1.582,1.492,1.492,0,0,1,1.382-1.582,1.492,1.492,0,0,1,1.386,1.582A1.492,1.492,0,0,1,7.651,16.175Zm5.157.032a1.509,1.509,0,0,1-1.4-1.6,1.509,1.509,0,0,1,1.4-1.6,1.506,1.506,0,0,1,1.4,1.6A1.506,1.506,0,0,1,12.808,16.207Z" transform="translate(-1.08 -7.033)"/></svg>