<svg xmlns="http://www.w3.org/2000/svg" width="18.882" height="13.967" viewBox="0 0 18.882 13.967"><path d="M6.735,19.734,6.242,17.68a1.072,1.072,0,0,0-1.068-.822H2.606a1.072,1.072,0,0,0-1.068.822l-.493,2.054a.982.982,0,0,0,.185.822,1.113,1.113,0,0,0,.879.411H5.671a1.113,1.113,0,0,0,.879-.411.982.982,0,0,0,.185-.822Zm6.572,0-.493-2.054a1.072,1.072,0,0,0-1.068-.822H9.179a1.072,1.072,0,0,0-1.068.822l-.493,2.054a.982.982,0,0,0,.185.822,1.113,1.113,0,0,0,.879.411h3.561a1.113,1.113,0,0,0,.879-.411.982.982,0,0,0,.185-.822Zm6.572,0-.493-2.054a1.072,1.072,0,0,0-1.068-.822H15.751a1.072,1.072,0,0,0-1.068.822l-.493,2.054a.982.982,0,0,0,.185.822,1.113,1.113,0,0,0,.879.411h3.561a1.113,1.113,0,0,0,.879-.411.982.982,0,0,0,.185-.822ZM10.021,14.8,9.528,12.75a1.072,1.072,0,0,0-1.068-.822H5.893a1.072,1.072,0,0,0-1.068.822L4.332,14.8a.982.982,0,0,0,.185.822,1.113,1.113,0,0,0,.879.411H8.957a1.113,1.113,0,0,0,.879-.411A.982.982,0,0,0,10.021,14.8Zm3.286-4.929-.493-2.054A1.072,1.072,0,0,0,11.746,7H9.179a1.072,1.072,0,0,0-1.068.822L7.618,9.875A.982.982,0,0,0,7.8,10.7a1.113,1.113,0,0,0,.879.411h3.561a1.113,1.113,0,0,0,.879-.411.982.982,0,0,0,.185-.822ZM16.593,14.8,16.1,12.75a1.072,1.072,0,0,0-1.068-.822H12.465a1.072,1.072,0,0,0-1.068.822L10.9,14.8a.982.982,0,0,0,.185.822,1.113,1.113,0,0,0,.879.411h3.561a1.113,1.113,0,0,0,.879-.411A.982.982,0,0,0,16.593,14.8Z" transform="translate(-1.021 -6.999)"/></svg>