<svg xmlns="http://www.w3.org/2000/svg" width="205.482" height="194.368" viewBox="0 0 205.482 194.368"><defs><style>.a{fill:#69707e;}.b{fill:#fff;}.c{fill:#212429;}</style></defs><g transform="translate(-44 -189.285)"><g transform="translate(44 -31)"><path class="a" d="M549.159,170.72s-5.2-9.018-9.714-12.28-11.705-2.621-17.305-8.776-14.311-.091-14.468-11.75,4.98-8.539-.932-14.069,5.3-14.881,5.3-14.881-29.746-13.656-26.792-19.871,25.593,8.186,54.8,12.275c0,0,11.65-6.079,14.659-2.183s.212,38.729.212,38.729l11.821,21.575Z" transform="translate(-485.039 132.727)"/><path class="b" d="M517.14,108.406l-6.452-10.314s-20.138,11.221-25.648,26.8l10.072,6.856Z" transform="translate(-435.442 175.296)"/><path class="c" d="M509.446,90.3c-10.752,9.381-18.263,21.545-15.44,24.459s15.44-6.276,15.44-6.276l-1.417,10.5s-12.839,6.967-17.154-3S509.446,90.3,509.446,90.3Z" transform="translate(-454.44 143.797)"/><path d="M600.278,91.1c-3.937,8.555-41.038,99.664-41.038,99.664s-10.6-11.685-9.744,0l-59.422-60.975s-27.4,9.3-29.59,33.462c0,0,73.834,101.524,100.627,104.277s51.1-72.645,51.1-72.645Z" transform="translate(-406.727 147.05)"/></g></g></svg>