<svg xmlns="http://www.w3.org/2000/svg" xmlns:xlink="http://www.w3.org/1999/xlink" width="38.4" height="48" viewBox="0 0 38.4 48"><defs><style>.a{fill:url(#a);}</style><linearGradient id="a" x1="0.5" x2="0.5" y2="1" gradientUnits="objectBoundingBox"><stop offset="0" stop-color="#ccc"/><stop offset="0.134" stop-color="#e7e7e7"/><stop offset="0.268" stop-color="#ccc"/><stop offset="0.385" stop-color="#e7e7e7"/><stop offset="0.495" stop-color="#ccc"/><stop offset="0.609" stop-color="#e7e7e7"/><stop offset="0.753" stop-color="#ccc"/><stop offset="0.867" stop-color="#e7e7e7"/><stop offset="1" stop-color="#ccc"/></linearGradient></defs><path class="a" d="M23.2,2a9.6,9.6,0,0,1,9.6,9.6v4.8H37a5.4,5.4,0,0,1,5.4,5.4V44.6A5.4,5.4,0,0,1,37,50H9.4A5.4,5.4,0,0,1,4,44.6V21.8a5.4,5.4,0,0,1,5.4-5.4h4.2V11.6A9.6,9.6,0,0,1,23.2,2ZM37,20H9.4a1.8,1.8,0,0,0-1.8,1.8V44.6a1.8,1.8,0,0,0,1.8,1.8H37a1.8,1.8,0,0,0,1.8-1.8V21.8A1.8,1.8,0,0,0,37,20ZM23.2,29.6a3.6,3.6,0,1,1-3.6,3.6A3.6,3.6,0,0,1,23.2,29.6Zm0-24a6,6,0,0,0-6,6v4.8h12V11.6A6,6,0,0,0,23.2,5.6Z" transform="translate(-4 -2)"/></svg>