<svg xmlns="http://www.w3.org/2000/svg" xmlns:xlink="http://www.w3.org/1999/xlink" width="32" height="29.166" viewBox="0 0 32 29.166"><defs><style>.a{fill:url(#a);}</style><linearGradient id="a" x1="0.5" x2="0.5" y2="1" gradientUnits="objectBoundingBox"><stop offset="0" stop-color="#ccc"/><stop offset="0.234" stop-color="#e7e7e7"/><stop offset="0.502" stop-color="#ccc"/><stop offset="0.753" stop-color="#e7e7e7"/><stop offset="1" stop-color="#ccc"/></linearGradient></defs><path class="a" d="M20.737,3c-1.462,0-3.171,1.147-3.429,6.271.217-.005.431-.022.651-.022.244,0,.5.014.738.022.165-3.079.9-4.883,2.04-4.883.488,0,.765.266,1.28.825a5.152,5.152,0,0,0,2.93,1.823,4.311,4.311,0,0,1-.043-.564,4.149,4.149,0,0,1,.087-.846A3.921,3.921,0,0,1,23.037,4.28,3.039,3.039,0,0,0,20.737,3Zm8.333.694a2.778,2.778,0,1,0,2.778,2.778A2.781,2.781,0,0,0,29.07,3.694ZM17.959,10.639c-8.425,0-15.277,4.291-15.277,10.416S9.534,32.165,17.959,32.165,33.236,27.18,33.236,21.055,26.384,10.639,17.959,10.639ZM5.807,11.29a3.829,3.829,0,0,0-2.713,1.15,3.776,3.776,0,0,0-.76,4.34,12.528,12.528,0,0,1,5.186-5.056A3.807,3.807,0,0,0,5.807,11.29Zm24.3,0a3.807,3.807,0,0,0-1.714.434,12.528,12.528,0,0,1,5.186,5.056,3.776,3.776,0,0,0-.759-4.34A3.829,3.829,0,0,0,30.111,11.29ZM12.4,16.888a2.083,2.083,0,1,1-2.083,2.083A2.084,2.084,0,0,1,12.4,16.888Zm11.111,0a2.083,2.083,0,1,1-2.083,2.083A2.084,2.084,0,0,1,23.514,16.888ZM11.753,24.527a.715.715,0,0,1,.456.282c.073.1,1.7,2.279,5.751,2.279,4.1,0,5.734-2.235,5.751-2.257a.706.706,0,0,1,.976-.174.678.678,0,0,1,.152.955c-.081.117-2.062,2.864-6.879,2.864s-6.8-2.748-6.879-2.864a.676.676,0,0,1,.152-.955A.708.708,0,0,1,11.753,24.527Z" transform="translate(-1.959 -3)"/></svg>