<svg xmlns="http://www.w3.org/2000/svg" width="22" height="14.667" viewBox="0 0 22 14.667"><path d="M5.4,7a4.4,4.4,0,0,0-1.146,8.64A4.387,4.387,0,0,0,12,19.673a4.386,4.386,0,0,0,7.746-4.033A4.4,4.4,0,1,0,15.3,8.49a4.4,4.4,0,0,0-6.6,0A4.4,4.4,0,0,0,5.4,7Zm0,1.467a2.887,2.887,0,0,1,2.475,1.4,4.474,4.474,0,0,0-.023,3.025,4.386,4.386,0,0,0-2.773,1.4A2.918,2.918,0,0,1,5.4,8.467Zm6.6,0a2.887,2.887,0,0,1,2.475,1.4,4.424,4.424,0,0,0,0,3.071c-.02.034-.023.08-.046.115a4.425,4.425,0,0,0-1.994,1.237,3.121,3.121,0,0,1-.435.046,3.119,3.119,0,0,1-.435-.046A4.425,4.425,0,0,0,9.571,13.05c-.023-.034-.026-.08-.046-.115a4.424,4.424,0,0,0,0-3.071A2.887,2.887,0,0,1,12,8.467Zm6.6,0a2.918,2.918,0,0,1,.321,5.821,4.386,4.386,0,0,0-2.773-1.4,4.474,4.474,0,0,0-.023-3.025A2.887,2.887,0,0,1,18.6,8.467ZM8.654,14.379c.037,0,.077-.006.115,0a4.425,4.425,0,0,0,1.994,1.238,2.954,2.954,0,0,1,.5,1.65,2.933,2.933,0,1,1-5.454-1.49A4.392,4.392,0,0,0,8.654,14.379Zm6.577,0c.037-.006.077,0,.115,0a4.393,4.393,0,0,0,2.842,1.4,2.929,2.929,0,1,1-4.95-.16A4.425,4.425,0,0,0,15.231,14.379Z" transform="translate(-1 -7)"/></svg>