<svg xmlns="http://www.w3.org/2000/svg" xmlns:xlink="http://www.w3.org/1999/xlink" width="32" height="26.638" viewBox="0 0 32 26.638"><defs><style>.a{fill:url(#a);}</style><linearGradient id="a" x1="0.5" x2="0.5" y2="1" gradientUnits="objectBoundingBox"><stop offset="0" stop-color="#ccc"/><stop offset="0.234" stop-color="#e7e7e7"/><stop offset="0.502" stop-color="#ccc"/><stop offset="0.753" stop-color="#e7e7e7"/><stop offset="1" stop-color="#ccc"/></linearGradient></defs><path class="a" d="M5.234,20.452c9.847-4.332,22.59-9.613,24.348-10.344,4.614-1.913,6.03-1.547,5.324,2.69-.507,3.045-1.97,13.128-3.136,19.4-.692,3.722-2.244,4.163-4.684,2.553-1.174-.775-7.1-4.692-8.383-5.612-1.174-.838-2.792-1.847-.762-3.833.722-.707,5.458-5.229,9.147-8.748a.547.547,0,0,0-.682-.851c-4.973,3.3-11.867,7.875-12.745,8.471a5.1,5.1,0,0,1-4.884.657c-1.727-.5-3.414-1.087-4.07-1.313C2.179,22.656,2.779,21.532,5.234,20.452Z" transform="translate(-3.078 -9)"/></svg>