<svg xmlns="http://www.w3.org/2000/svg" width="16.785" height="13.972" viewBox="0 0 16.785 13.972"><defs><style>.a{fill:#212429;}</style></defs><path class="a" d="M4.209,15.007C9.374,12.735,16.058,9.964,16.98,9.581c2.42-1,3.163-.811,2.793,1.411-.266,1.6-1.033,6.886-1.645,10.178-.363,1.952-1.177,2.183-2.457,1.339-.616-.406-3.723-2.461-4.4-2.944-.616-.44-1.465-.969-.4-2.01.379-.371,2.863-2.743,4.8-4.589a.287.287,0,0,0-.358-.446c-2.608,1.73-6.225,4.131-6.685,4.443a2.677,2.677,0,0,1-2.562.344c-.906-.26-1.791-.57-2.135-.689C2.606,16.163,2.921,15.574,4.209,15.007Z" transform="translate(-3.078 -9)"/></svg>