<svg xmlns="http://www.w3.org/2000/svg" width="17.548" height="14.259" viewBox="0 0 17.548 14.259"><defs><style>.a{fill:#212429;}</style></defs><path class="a" d="M17.814,4.8a7.232,7.232,0,0,1-2.068.568,3.62,3.62,0,0,0,1.583-1.993,7.21,7.21,0,0,1-2.288.873A3.6,3.6,0,0,0,8.907,7.533,10.223,10.223,0,0,1,1.487,3.77,3.606,3.606,0,0,0,2.6,8.578,3.569,3.569,0,0,1,.97,8.128v.046A3.6,3.6,0,0,0,3.858,11.7a3.569,3.569,0,0,1-.948.126,3.524,3.524,0,0,1-.678-.064,3.6,3.6,0,0,0,3.362,2.5A7.205,7.205,0,0,1,1.123,15.8a7.517,7.517,0,0,1-.857-.048,10.188,10.188,0,0,0,5.518,1.615A10.173,10.173,0,0,0,16.027,7.131c0-.158,0-.313-.011-.469a7.2,7.2,0,0,0,1.8-1.862" transform="translate(-0.266 -3.113)"/></svg>