<svg xmlns="http://www.w3.org/2000/svg" xmlns:xlink="http://www.w3.org/1999/xlink" width="32" height="26.001" viewBox="0 0 32 26.001"><defs><style>.a{fill:url(#a);}</style><linearGradient id="a" x1="0.5" x2="0.5" y2="1" gradientUnits="objectBoundingBox"><stop offset="0" stop-color="#ccc"/><stop offset="0.234" stop-color="#e7e7e7"/><stop offset="0.502" stop-color="#ccc"/><stop offset="0.753" stop-color="#e7e7e7"/><stop offset="1" stop-color="#ccc"/></linearGradient></defs><path class="a" d="M32.266,6.191a13.188,13.188,0,0,1-3.771,1.036,6.6,6.6,0,0,0,2.887-3.634A13.148,13.148,0,0,1,27.21,5.184a6.57,6.57,0,0,0-11.186,5.989A18.642,18.642,0,0,1,2.493,4.31a6.575,6.575,0,0,0,2.032,8.768,6.509,6.509,0,0,1-2.975-.821v.083a6.571,6.571,0,0,0,5.266,6.438,6.508,6.508,0,0,1-1.729.23,6.426,6.426,0,0,1-1.236-.117,6.568,6.568,0,0,0,6.13,4.557,13.139,13.139,0,0,1-8.153,2.809,13.707,13.707,0,0,1-1.563-.088,18.579,18.579,0,0,0,10.063,2.946c12.075,0,18.679-10,18.679-18.674,0-.288,0-.572-.02-.855a13.134,13.134,0,0,0,3.278-3.395" transform="translate(-0.266 -3.113)"/></svg>