<svg width="17" height="17" viewBox="0 0 17 17" fill="none" xmlns="http://www.w3.org/2000/svg">
<path d="M8.393 0C6.78624 0.0025292 5.21385 0.465393 3.86198 1.33379C2.51011 2.2022 1.43537 3.43977 0.765 4.9H2.339C3.09743 3.59586 4.25405 2.56927 5.639 1.971C5.12336 2.88399 4.75452 3.8724 4.546 4.9H6.01C6.54 2.775 7.499 1.4 8.392 1.4C9.285 1.4 10.244 2.771 10.774 4.9H12.238C12.0295 3.8724 11.6606 2.88399 11.145 1.971C12.5299 2.56927 13.6866 3.59586 14.445 4.9H16.02C15.3496 3.44 14.275 2.2026 12.9233 1.33422C11.5717 0.465846 9.99956 0.0028424 8.393 0ZM0 6.294L1.049 10.494H2.076C2.076 10.494 2.803 7.953 2.819 7.762H2.841C2.849 7.934 3.562 10.494 3.562 10.494H4.545L5.594 6.294H4.7C4.7 6.294 4.1 8.805 4.088 8.96H4.065C4.046 8.76 3.365 6.294 3.365 6.294H2.4C2.4 6.294 1.6 8.832 1.591 8.982C1.58 8.782 0.979 6.294 0.979 6.294H0ZM5.6 6.294L6.649 10.494H7.676C7.676 10.494 8.403 7.953 8.419 7.762H8.441C8.449 7.934 9.162 10.494 9.162 10.494H10.145L11.194 6.294H10.294C10.294 6.294 9.694 8.805 9.682 8.96H9.66C9.641 8.76 8.96 6.294 8.96 6.294H8C8 6.294 7.2 8.832 7.191 8.982C7.18 8.782 6.579 6.294 6.579 6.294H5.6ZM11.2 6.294L12.249 10.494H13.276C13.276 10.494 14.003 7.953 14.019 7.762H14.041C14.049 7.934 14.762 10.494 14.762 10.494H15.745L16.794 6.294H15.894C15.894 6.294 15.294 8.805 15.282 8.96H15.26C15.241 8.76 14.56 6.294 14.56 6.294H13.598C13.598 6.294 12.798 8.832 12.789 8.982C12.778 8.782 12.177 6.294 12.177 6.294H11.2ZM0.775 11.894C1.44423 13.3546 2.51876 14.5924 3.87088 15.4602C5.22301 16.3279 6.79586 16.7892 8.4025 16.7892C10.0091 16.7892 11.582 16.3279 12.9341 15.4602C14.2862 14.5924 15.3608 13.3546 16.03 11.894H14.447C13.6886 13.1981 12.5319 14.2247 11.147 14.823C11.6626 13.91 12.0315 12.9216 12.24 11.894H10.775C10.245 14.019 9.286 15.394 8.393 15.394C7.5 15.394 6.541 14.023 6.011 11.894H4.546C4.75452 12.9216 5.12336 13.91 5.639 14.823C4.25405 14.2247 3.09743 13.1981 2.339 11.894H0.775Z" fill="#212429"/>
</svg>
