<?xml version="1.0" standalone="no"?>
<!DOCTYPE svg PUBLIC "-//W3C//DTD SVG 20010904//EN"
 "http://www.w3.org/TR/2001/REC-SVG-20010904/DTD/svg10.dtd">
<svg version="1.0" xmlns="http://www.w3.org/2000/svg"
 width="533.000000pt" height="533.000000pt" viewBox="0 0 533.000000 533.000000"
 preserveAspectRatio="xMidYMid meet">
<metadata>
Created by potrace 1.14, written by Peter Selinger 2001-2017
</metadata>
<g transform="translate(0.000000,533.000000) scale(0.100000,-0.100000)"
fill="#000000" stroke="none">
<path d="M75 4581 c-6 -5 27 -55 42 -64 7 -4 13 -15 13 -22 0 -8 4 -15 8 -15
4 0 15 -12 24 -27 19 -32 46 -67 71 -94 9 -11 14 -19 10 -19 -5 0 -3 -4 2 -8
6 -4 23 -25 40 -47 16 -22 34 -43 39 -47 6 -4 7 -8 3 -8 -4 0 2 -10 13 -22 12
-13 29 -35 38 -50 9 -16 20 -28 24 -28 4 0 8 -4 8 -10 0 -10 86 -131 119 -166
11 -12 18 -24 15 -26 -2 -3 5 -13 16 -23 11 -10 20 -24 20 -30 0 -7 7 -15 15
-19 8 -3 15 -11 15 -17 0 -6 10 -20 22 -30 11 -11 18 -19 14 -19 -7 0 4 -15
42 -55 12 -14 22 -27 21 -31 0 -3 8 -17 20 -30 11 -13 32 -40 45 -61 43 -64
87 -125 102 -140 8 -8 11 -20 7 -26 -3 -7 -3 -9 2 -5 7 6 32 -24 87 -106 7
-10 18 -24 23 -30 6 -6 26 -33 45 -61 19 -27 38 -51 43 -53 4 -2 7 -8 7 -13 0
-5 9 -20 21 -33 12 -13 20 -27 20 -30 -1 -4 10 -17 23 -31 14 -13 33 -38 42
-55 10 -16 22 -30 27 -30 4 0 6 -4 3 -9 -3 -5 1 -11 9 -15 8 -3 15 -12 15 -20
0 -8 3 -16 8 -18 9 -4 62 -75 62 -84 0 -4 14 -20 30 -36 17 -16 28 -33 25 -38
-4 -6 -2 -10 4 -10 5 0 26 24 47 53 21 28 41 54 44 57 3 3 19 25 35 50 16 25
32 47 35 50 23 21 36 56 26 67 -17 18 -25 30 -106 143 -41 58 -78 110 -83 115
-4 6 -32 44 -61 85 -30 41 -62 83 -70 93 -9 9 -16 22 -16 27 0 6 -4 10 -10 10
-5 0 -10 6 -10 13 0 7 -9 20 -20 30 -11 9 -20 24 -20 32 0 8 -4 15 -8 15 -5 0
-31 32 -58 70 -27 39 -57 81 -67 93 -10 12 -26 34 -35 50 -9 15 -20 27 -24 27
-4 0 -8 6 -8 14 0 8 -3 16 -7 18 -9 4 -93 115 -93 123 0 3 -8 14 -17 24 -30
33 -43 50 -43 56 0 3 -5 11 -10 18 -46 54 -90 117 -90 127 0 6 -5 8 -10 5 -6
-3 -10 3 -10 13 0 11 6 22 13 24 6 2 75 3 151 3 136 -1 140 -2 155 -25 9 -14
24 -33 33 -42 10 -10 18 -21 18 -24 0 -3 27 -42 60 -85 33 -43 58 -79 54 -79
-3 0 1 -6 8 -13 18 -19 38 -47 172 -232 63 -88 124 -170 135 -182 12 -12 21
-26 21 -31 0 -5 9 -17 20 -27 11 -10 20 -24 20 -31 0 -7 4 -14 8 -16 4 -1 35
-40 67 -85 33 -46 63 -83 67 -83 5 0 8 -8 8 -18 0 -10 9 -24 20 -32 11 -8 20
-19 20 -25 0 -6 11 -22 25 -37 14 -15 25 -32 25 -38 0 -5 4 -10 8 -10 4 0 15
-13 24 -28 15 -26 16 -31 2 -58 -9 -16 -25 -39 -36 -51 -12 -13 -17 -23 -13
-23 5 0 -1 -7 -13 -16 -12 -8 -22 -21 -22 -27 0 -7 -10 -23 -23 -37 -12 -14
-40 -50 -61 -80 -22 -30 -43 -56 -48 -58 -4 -2 -8 -10 -8 -18 0 -8 -7 -17 -15
-20 -8 -4 -15 -10 -15 -16 0 -5 -15 -29 -32 -53 -18 -23 -42 -56 -53 -71 -11
-15 -31 -40 -43 -56 -13 -15 -21 -28 -18 -28 5 0 -11 -22 -39 -54 -6 -6 -33
-42 -60 -81 -27 -38 -53 -71 -57 -73 -4 -2 -8 -8 -8 -14 0 -5 -6 -16 -13 -23
-19 -22 -30 -37 -62 -85 -16 -25 -37 -50 -45 -57 -8 -7 -12 -13 -8 -13 5 0 0
-9 -10 -19 -28 -32 -38 -45 -39 -55 -1 -5 -5 -12 -10 -15 -5 -3 -25 -28 -44
-56 -18 -27 -46 -63 -61 -80 -16 -16 -28 -36 -28 -42 0 -7 -4 -13 -10 -13 -5
0 -10 -5 -10 -11 0 -6 -6 -17 -12 -24 -27 -30 -38 -44 -38 -49 0 -6 -24 -37
-47 -61 -7 -8 -13 -17 -13 -20 0 -4 -10 -20 -22 -35 -13 -15 -30 -37 -38 -50
-8 -12 -43 -60 -78 -106 -34 -46 -60 -84 -56 -84 3 0 -4 -9 -17 -20 -13 -10
-21 -19 -17 -20 5 0 0 -9 -10 -19 -27 -30 -37 -44 -67 -89 -15 -23 -32 -42
-37 -42 -5 0 -7 -4 -4 -9 3 -4 -3 -16 -14 -26 -11 -10 -31 -38 -45 -61 -14
-24 -30 -44 -34 -44 -5 0 -14 -13 -21 -30 -7 -16 -15 -30 -19 -30 -3 0 -17
-18 -31 -40 -14 -22 -28 -40 -33 -40 -4 0 -6 -4 -2 -9 3 -6 -1 -13 -8 -18 -8
-4 -22 -21 -33 -38 -10 -16 -25 -37 -32 -45 -7 -8 -12 -18 -12 -22 0 -5 -9
-17 -20 -28 -21 -21 -28 -46 -10 -35 5 3 10 0 10 -7 0 -8 3 -9 8 -3 8 12 131
13 150 2 6 -5 12 -4 12 0 0 11 130 10 148 -1 6 -4 12 -2 12 3 0 6 7 11 15 11
8 0 15 5 15 10 0 10 4 16 35 53 6 7 21 28 35 47 13 19 30 42 37 50 31 34 153
211 153 221 0 5 4 8 8 5 5 -3 17 9 27 27 10 18 27 42 38 54 11 13 17 23 14 23
-4 0 1 8 10 18 10 10 25 29 33 42 8 13 23 32 33 42 9 10 17 21 17 26 0 4 13
22 29 40 17 17 28 32 25 32 -3 0 8 17 25 37 16 20 28 40 25 45 -3 5 -2 7 3 6
4 -2 9 1 10 6 1 5 6 12 11 15 13 8 83 101 77 101 -3 0 6 12 20 27 14 15 25 31
25 35 0 5 8 16 17 26 10 10 34 40 53 68 19 27 38 50 42 52 4 2 8 8 8 14 0 6
10 22 22 37 42 50 67 86 65 91 -1 3 13 20 31 38 18 18 30 32 27 32 -4 0 14 27
39 59 25 33 46 64 46 69 0 5 7 13 16 16 9 4 14 9 10 13 -3 3 3 12 14 20 11 8
20 20 20 27 0 8 7 17 16 20 9 4 14 9 11 12 -3 3 2 14 11 24 32 35 42 49 42 59
0 5 8 16 19 23 10 7 20 18 22 23 1 6 6 15 11 20 4 6 19 24 33 41 13 17 22 34
19 37 -3 3 3 12 15 19 12 7 21 18 21 25 0 6 4 13 8 15 5 1 23 26 42 53 19 28
39 55 45 62 29 35 33 41 28 47 -4 3 -2 6 4 6 5 0 30 29 54 65 24 36 47 65 51
65 5 0 8 7 8 15 0 7 6 18 13 22 7 4 25 28 41 52 30 47 41 61 67 90 22 24 15
67 -13 91 -13 11 -19 19 -14 20 5 0 -1 9 -14 20 -13 11 -19 20 -15 20 4 0 -2
8 -13 19 -12 10 -19 21 -15 24 3 4 -2 9 -11 13 -9 3 -16 10 -16 15 0 5 -27 46
-61 91 -33 46 -68 94 -77 107 -10 13 -23 29 -30 37 -7 8 -11 14 -8 14 3 0 -8
14 -24 32 -16 17 -28 34 -25 36 2 2 -1 10 -8 17 -20 21 -39 47 -107 140 -35
50 -68 92 -72 93 -4 2 -8 8 -8 13 0 5 -6 17 -14 26 -41 51 -86 114 -86 122 0
5 -4 11 -8 13 -5 2 -28 31 -52 66 -24 34 -48 62 -52 62 -4 0 -8 6 -8 13 0 6
-14 28 -30 47 -16 19 -34 41 -40 47 -6 7 -9 14 -8 15 3 3 -50 76 -62 88 -3 3
-14 18 -23 33 -10 16 -28 40 -40 54 -12 13 -21 27 -19 29 1 3 -3 11 -10 18
-14 14 -44 53 -58 76 -7 12 -88 14 -545 15 -295 0 -538 -2 -540 -4z"/>
<path d="M2894 4544 c-19 -23 -34 -44 -34 -48 0 -7 -12 -23 -42 -57 -10 -10
-18 -21 -18 -24 0 -3 -7 -13 -14 -22 -8 -10 -33 -43 -55 -73 -22 -30 -44 -60
-50 -66 -5 -7 -7 -15 -4 -18 4 -3 2 -6 -4 -6 -6 0 -23 -19 -39 -42 -16 -24
-32 -47 -37 -53 -78 -103 -167 -228 -167 -235 0 -5 -3 -10 -8 -12 -4 -1 -25
-28 -47 -58 -22 -30 -44 -60 -50 -67 -5 -7 -16 -19 -23 -28 -7 -8 -9 -15 -5
-15 4 0 3 -4 -3 -8 -5 -4 -39 -47 -75 -97 -35 -49 -67 -91 -71 -93 -11 -5 20
-62 33 -62 6 0 8 -4 4 -9 -3 -5 3 -16 13 -23 10 -7 27 -28 37 -45 11 -18 23
-33 27 -33 4 0 8 -7 8 -15 0 -8 5 -15 10 -15 6 0 10 -5 10 -10 0 -6 11 -22 24
-36 l23 -26 22 35 c12 19 28 38 36 41 8 3 14 9 13 14 -2 4 14 30 35 57 20 28
36 52 35 55 -1 3 15 23 35 45 20 22 37 45 37 52 0 6 4 13 8 15 7 3 115 149
162 218 8 12 20 28 25 34 6 6 26 33 45 61 47 66 46 65 75 101 14 18 25 37 25
43 0 6 4 11 10 11 5 0 16 12 24 28 8 15 26 40 40 56 14 16 26 32 26 36 0 3 8
15 18 26 10 10 28 35 42 54 13 19 28 38 33 41 5 3 8 8 7 10 -4 11 13 38 21 33
5 -3 9 2 9 10 0 9 5 16 10 16 6 0 10 7 10 15 0 7 8 19 18 24 9 6 13 11 9 11
-4 0 2 10 13 23 23 23 122 166 118 168 -2 1 -86 2 -187 2 l-184 2 -33 -41z"/>
<path d="M3635 4582 c-19 -3 -75 -72 -75 -92 0 -6 -4 -10 -9 -10 -5 0 -20 -17
-32 -37 -13 -21 -29 -44 -37 -52 -7 -8 -21 -26 -30 -40 -9 -14 -38 -54 -65
-88 -26 -35 -45 -63 -42 -63 3 0 -3 -8 -12 -18 -10 -10 -36 -44 -58 -76 -22
-32 -48 -67 -58 -79 -10 -12 -26 -34 -35 -49 -9 -16 -20 -28 -25 -28 -4 0 -5
-4 -2 -10 3 -5 3 -10 -2 -10 -4 0 -21 -21 -38 -45 -16 -25 -33 -45 -37 -45 -5
0 -8 -6 -8 -13 0 -8 -11 -24 -25 -37 -13 -12 -22 -26 -20 -31 3 -4 2 -9 -3
-11 -12 -5 -72 -85 -72 -97 0 -6 -4 -11 -8 -11 -5 0 -26 -25 -48 -57 -21 -31
-44 -61 -50 -67 -6 -6 -12 -15 -13 -21 -9 -27 -14 -34 -21 -30 -5 3 -14 -8
-22 -25 -7 -16 -16 -30 -20 -30 -5 0 -8 -6 -8 -14 0 -8 -7 -17 -16 -20 -8 -3
-12 -10 -9 -16 3 -5 2 -10 -4 -10 -5 0 -19 -16 -31 -35 -12 -20 -27 -41 -34
-48 -11 -11 -87 -117 -111 -155 -5 -9 -14 -21 -20 -27 -5 -7 -18 -23 -27 -36
-10 -13 -40 -55 -68 -92 -27 -37 -50 -70 -50 -73 0 -3 -9 -14 -20 -26 -11 -12
-32 -40 -47 -62 -15 -23 -32 -44 -38 -48 -7 -5 -7 -8 0 -8 6 0 2 -5 -7 -11
-10 -5 -18 -15 -18 -21 0 -6 -8 -18 -17 -27 -39 -35 -49 -80 -23 -101 3 -3 17
-21 30 -40 13 -19 27 -37 30 -40 3 -3 22 -27 41 -55 18 -27 37 -51 42 -53 4
-2 7 -10 7 -18 0 -8 3 -14 8 -14 4 0 18 -17 32 -38 14 -20 29 -42 35 -48 5 -6
17 -22 25 -34 8 -13 27 -38 42 -55 15 -18 25 -34 23 -37 -3 -2 9 -17 25 -33
17 -16 30 -35 30 -42 0 -7 5 -13 10 -13 6 0 10 -5 10 -11 0 -7 12 -23 26 -36
14 -13 24 -26 21 -29 -3 -3 5 -16 17 -28 11 -13 32 -40 46 -60 14 -21 30 -43
35 -49 32 -38 65 -87 65 -96 0 -6 4 -11 8 -11 5 0 26 -26 48 -58 21 -31 41
-59 44 -62 3 -3 22 -27 41 -55 18 -27 36 -52 39 -55 3 -3 17 -21 30 -40 13
-19 29 -40 35 -47 30 -36 35 -43 35 -48 0 -4 6 -12 13 -19 6 -8 19 -24 27 -36
8 -13 34 -49 58 -80 23 -32 42 -61 42 -64 0 -3 8 -14 18 -24 36 -38 62 -77 62
-93 0 -15 -16 -17 -150 -18 -97 -1 -150 2 -150 9 0 5 -7 10 -17 10 -9 0 -14 3
-10 6 3 3 2 11 -3 18 -33 40 -61 77 -90 121 -19 28 -38 55 -42 60 -50 61 -106
144 -101 149 4 3 -1 6 -10 6 -10 0 -17 6 -17 13 0 6 -14 28 -30 47 -16 19 -30
38 -30 43 0 4 -8 16 -17 26 -31 34 -43 50 -43 57 0 4 -9 15 -21 25 -11 9 -20
20 -19 23 0 4 -18 31 -40 61 -22 30 -40 58 -40 64 0 5 -4 11 -8 13 -5 2 -33
37 -62 78 -30 41 -57 77 -60 80 -4 3 -11 13 -17 24 -10 17 -12 16 -28 -12 -10
-17 -23 -28 -28 -25 -6 3 -7 2 -4 -4 4 -5 -1 -19 -11 -30 -9 -10 -21 -26 -27
-35 -5 -9 -31 -46 -57 -82 -37 -52 -45 -68 -33 -72 8 -4 13 -10 10 -14 -3 -4
2 -11 11 -14 8 -3 13 -10 9 -16 -3 -5 3 -15 15 -22 11 -7 20 -17 20 -21 0 -10
52 -81 63 -85 4 -2 7 -10 7 -18 0 -8 4 -14 8 -14 4 0 19 -18 32 -40 14 -22 28
-40 33 -40 4 0 7 -4 7 -10 0 -10 21 -38 55 -75 11 -11 21 -25 23 -30 6 -20 76
-115 84 -115 4 0 8 -5 8 -11 0 -5 15 -30 33 -54 17 -23 41 -55 51 -70 11 -14
30 -38 43 -53 13 -15 23 -30 23 -33 0 -3 13 -24 30 -45 74 -97 100 -132 100
-138 0 -3 12 -18 26 -33 18 -19 36 -28 57 -28 18 -1 38 -5 46 -9 9 -6 12 -5 8
0 -7 12 142 12 161 1 6 -5 12 -4 12 1 0 12 73 10 82 -3 5 -7 8 -7 8 0 0 12
358 14 378 2 6 -5 12 -4 12 1 0 12 73 10 82 -3 5 -7 8 -7 8 0 0 7 42 10 115
10 126 -1 134 4 89 49 -15 14 -23 26 -18 26 5 0 4 4 -1 8 -6 4 -22 23 -35 42
-13 19 -27 37 -30 40 -3 3 -34 46 -70 95 -35 50 -68 92 -72 93 -4 2 -8 8 -8
14 0 10 -33 55 -65 89 -8 9 -15 21 -15 27 0 6 -8 17 -19 24 -10 7 -19 17 -19
21 -1 13 -46 77 -54 77 -5 0 -8 4 -8 10 0 5 -10 21 -22 36 -13 14 -23 29 -23
33 0 7 -15 26 -52 65 -12 13 -20 26 -17 28 2 3 -5 13 -16 23 -11 10 -20 24
-20 30 0 7 -7 15 -15 19 -8 3 -15 12 -15 21 0 8 -4 15 -8 15 -4 0 -16 13 -25
30 -10 16 -23 35 -30 43 -7 7 -16 20 -22 29 -5 9 -45 63 -87 121 -42 58 -76
107 -75 109 1 1 0 2 -2 1 -2 -1 -23 26 -47 60 -23 34 -46 67 -51 72 -5 6 -38
51 -73 100 -36 50 -73 99 -82 109 -10 11 -18 26 -18 33 0 7 -4 13 -9 13 -5 0
-18 15 -30 33 -11 17 -26 41 -33 52 -7 11 -21 27 -30 36 -10 9 -18 20 -18 25
0 5 -11 22 -25 37 -14 15 -23 27 -20 27 3 0 -6 12 -20 27 -14 15 -25 32 -25
36 0 8 56 93 70 107 3 3 25 32 49 65 25 33 49 63 54 66 5 3 8 9 7 13 -1 7 19
35 68 96 12 15 22 31 22 34 0 6 24 38 52 67 9 9 14 20 11 23 -3 3 2 8 11 12 9
3 16 10 16 16 0 9 38 63 85 121 6 7 26 35 44 62 19 28 40 53 45 57 6 4 7 8 3
8 -5 0 8 17 27 38 20 20 36 43 36 50 0 6 5 12 10 12 6 0 10 5 10 11 0 6 6 17
13 24 30 34 35 43 30 49 -4 3 -1 6 4 6 6 0 24 20 40 45 15 25 31 45 36 45 4 0
7 5 7 12 0 6 7 18 15 27 27 29 65 79 65 86 0 3 6 12 13 19 6 8 19 24 27 36 8
13 23 32 33 42 9 10 14 18 10 18 -5 0 -3 4 2 8 12 9 64 76 90 117 10 17 26 35
34 42 9 7 13 13 9 13 -8 0 11 26 44 61 9 9 14 20 11 23 -3 3 2 8 11 12 9 3 16
11 16 18 0 6 10 23 23 38 12 14 40 52 62 83 22 31 48 66 58 77 9 12 17 24 17
27 0 5 17 28 60 78 5 7 10 15 10 17 0 5 15 25 45 60 24 28 9 31 -158 31 -95 0
-181 -1 -192 -3z"/>
<path d="M4162 4462 c-18 -3 -21 -8 -16 -24 3 -12 2 -18 -3 -15 -5 4 -10 0
-10 -8 0 -8 3 -15 6 -15 4 0 6 -39 6 -87 l0 -87 33 -7 c21 -4 32 -3 32 5 0 7
3 7 8 1 4 -6 62 -10 137 -10 75 0 133 4 137 10 5 7 8 6 8 0 0 -6 14 -9 34 -7
l33 4 1 -154 c0 -155 6 -220 22 -264 5 -13 7 -24 4 -24 -3 0 4 -13 15 -29 12
-16 21 -33 21 -38 1 -10 57 -73 66 -73 3 0 12 -7 21 -15 8 -8 19 -13 24 -10 5
4 9 2 9 -3 0 -24 226 -47 295 -30 11 3 35 9 53 13 17 4 32 11 32 16 0 5 3 8 8
7 38 -8 152 116 152 166 0 9 4 16 8 16 5 0 9 6 10 13 0 6 3 35 7 62 8 65 12
551 4 572 -5 15 -57 17 -570 17 -310 1 -574 0 -587 -2z m961 -263 c3 -11 0
-19 -5 -19 -7 0 -6 -5 1 -14 9 -10 9 -16 1 -21 -8 -5 -8 -10 0 -20 8 -10 8
-15 0 -20 -8 -5 -8 -10 0 -20 8 -10 8 -15 0 -20 -8 -5 -8 -10 0 -20 8 -10 8
-15 0 -20 -8 -5 -8 -11 1 -21 6 -8 7 -14 2 -14 -5 0 -9 -10 -8 -22 3 -31 -14
-77 -38 -104 -33 -38 -113 -55 -189 -40 -38 8 -98 58 -98 82 0 8 -4 14 -8 14
-5 0 -10 67 -11 149 l-2 150 175 -1 c162 0 175 -2 179 -19z"/>
<path d="M4136 3245 c-2 -7 -2 -16 2 -19 8 -9 10 -86 2 -81 -4 2 -7 -2 -7 -10
0 -8 3 -15 7 -15 3 0 5 -27 4 -59 -2 -57 -1 -60 26 -69 16 -6 31 -8 34 -5 3 4
6 1 6 -5 0 -7 3 -11 8 -10 7 2 93 -23 143 -43 l25 -10 0 -215 c-1 -195 -3
-216 -19 -225 -9 -6 -21 -8 -26 -4 -5 3 -11 0 -13 -5 -2 -6 -13 -12 -26 -13
-12 0 -22 -5 -22 -9 0 -4 -3 -7 -7 -6 -5 2 -36 -6 -70 -16 -60 -18 -61 -19
-58 -52 2 -19 -1 -34 -6 -34 -6 0 -6 -7 0 -18 5 -10 6 -24 1 -32 -4 -7 -5 -23
-1 -34 4 -12 7 -42 5 -68 -2 -49 -1 -50 51 -28 22 9 194 70 210 74 6 2 23 8
38 14 16 7 35 12 43 12 8 0 14 4 14 10 0 5 7 7 15 4 8 -4 15 -1 15 7 0 7 3 10
6 7 3 -4 20 0 39 7 18 8 35 11 39 8 3 -4 6 -1 6 6 0 7 4 10 8 7 5 -3 19 1 33
8 23 11 29 14 54 21 6 2 36 13 68 24 31 11 57 17 57 13 0 -4 4 -2 8 3 6 8 132
57 177 69 6 2 21 8 35 13 14 6 28 9 33 6 4 -2 7 0 7 5 0 5 6 9 13 9 22 1 172
57 179 68 5 6 8 6 8 1 0 -6 5 -5 12 2 8 8 12 57 12 146 1 74 -1 133 -3 131 -2
-2 -21 5 -42 16 -22 11 -39 17 -39 15 0 -3 -12 1 -27 9 -15 8 -30 12 -35 9 -4
-3 -8 0 -8 5 0 6 -9 11 -20 11 -11 0 -28 4 -38 10 -9 5 -37 16 -62 24 -25 8
-62 22 -82 30 -21 9 -38 13 -38 10 0 -4 -6 -1 -13 5 -8 6 -17 8 -20 4 -4 -3
-7 -2 -7 4 0 5 -6 10 -12 11 -14 1 -179 59 -241 85 -21 9 -35 11 -31 6 3 -6
-4 -4 -17 4 -13 8 -62 28 -109 43 -47 16 -88 33 -91 37 -3 4 -10 7 -15 6 -5
-1 -16 1 -24 4 -8 4 -59 22 -112 41 -74 27 -98 32 -102 21z m520 -413 c12 -6
24 -8 28 -5 3 3 6 0 6 -7 0 -7 3 -11 6 -8 4 5 127 -32 194 -59 8 -3 24 -8 35
-10 11 -2 22 -8 23 -13 2 -6 8 -7 13 -4 6 3 17 0 26 -8 14 -11 16 -11 8 2 -7
12 -6 13 7 3 8 -7 18 -9 23 -5 4 4 6 -1 4 -11 -2 -10 -7 -18 -11 -18 -4 0 -28
-8 -54 -19 -25 -11 -50 -18 -55 -14 -5 3 -9 0 -9 -6 0 -6 -3 -9 -7 -7 -5 3
-19 0 -33 -6 -24 -10 -37 -14 -62 -20 -34 -8 -125 -39 -141 -48 -10 -5 -22 -7
-27 -4 -6 4 -10 2 -10 -3 0 -5 -7 -9 -15 -9 -9 0 -15 10 -16 26 -1 31 -1 241
0 258 1 14 37 11 67 -5z"/>
<path d="M2024 2375 c-4 -8 -10 -12 -15 -9 -5 3 -9 -2 -9 -10 0 -9 -8 -25 -17
-35 -24 -26 -33 -38 -73 -96 -19 -27 -39 -54 -43 -60 -4 -5 -25 -35 -47 -65
-22 -30 -45 -63 -52 -72 -7 -9 -20 -27 -28 -39 -8 -12 -23 -31 -32 -41 -10
-10 -15 -18 -12 -18 3 0 -1 -6 -8 -14 -7 -7 -20 -24 -28 -36 -16 -23 -63 -87
-79 -106 -6 -7 -7 -15 -4 -18 4 -3 1 -6 -5 -6 -5 0 -19 -15 -31 -32 -11 -18
-28 -42 -38 -53 -11 -11 -19 -22 -19 -25 0 -7 -125 -180 -146 -201 -9 -10 -14
-20 -11 -23 3 -3 -2 -8 -11 -12 -9 -3 -16 -11 -16 -18 0 -6 -13 -26 -29 -44
-17 -17 -28 -32 -26 -32 4 0 -46 -69 -80 -112 -8 -9 -22 -29 -32 -45 -22 -34
-33 -49 -55 -74 -10 -10 -15 -19 -10 -19 4 0 2 -4 -3 -8 -6 -4 -28 -32 -50
-62 -22 -30 -44 -58 -50 -62 -5 -4 -6 -8 -2 -8 4 0 3 -6 -3 -13 -47 -55 -60
-74 -60 -85 0 -7 -4 -10 -10 -7 -5 3 -10 -1 -10 -9 0 -8 -6 -19 -12 -23 -7 -4
-18 -17 -24 -28 -11 -20 -9 -21 80 -20 50 1 97 -4 105 -9 11 -8 13 -8 8 0 -4
7 21 10 78 9 66 -2 88 1 100 14 22 24 85 110 85 117 0 4 10 15 22 25 11 11 17
19 12 19 -5 0 -4 4 1 8 6 4 22 23 35 42 13 19 27 37 30 40 3 3 18 24 34 48 16
23 33 42 39 42 6 0 7 3 4 6 -4 4 16 35 43 70 28 35 50 68 50 73 0 6 6 14 13
18 7 4 28 31 47 60 19 28 39 49 44 45 5 -3 6 -1 3 5 -4 5 3 20 14 31 11 12 16
22 12 22 -4 0 -3 4 3 8 6 4 35 41 65 82 29 41 57 77 61 78 5 2 8 8 8 13 0 6
11 22 24 36 14 15 23 30 20 35 -3 4 -1 8 4 8 5 0 22 19 38 43 24 36 45 64 82
112 64 83 119 164 115 169 -4 3 -1 6 5 6 5 0 20 15 31 33 11 19 32 46 47 62
16 17 22 31 15 33 -6 2 -11 10 -11 18 0 8 -4 14 -10 14 -5 0 -10 6 -10 14 0 8
-4 16 -8 18 -5 2 -24 26 -43 53 -97 141 -104 149 -115 120z"/>
<path d="M4146 1780 c-11 -38 3 -635 14 -635 1 0 3 -8 5 -17 8 -40 77 -146
121 -183 26 -22 50 -40 53 -40 3 -1 22 -11 41 -23 19 -12 64 -32 100 -43 36
-12 69 -24 73 -26 25 -15 261 -20 332 -8 22 3 48 7 58 8 9 1 17 6 17 12 0 5 5
3 10 -5 6 -10 10 -11 10 -2 0 6 6 12 14 12 21 0 105 38 122 55 9 8 21 15 27
15 6 0 29 20 52 44 60 65 74 84 68 90 -4 3 -1 6 6 6 7 0 10 4 6 9 -3 5 -1 12
5 16 6 4 8 11 5 16 -4 5 -1 9 4 9 6 0 10 3 10 8 -1 4 0 9 1 12 20 52 34 399
18 448 -4 12 -4 22 0 22 4 0 7 47 7 105 0 86 -3 105 -15 106 -8 1 -273 2 -588
3 -501 1 -573 -1 -576 -14z m977 -229 c4 0 4 -8 -1 -18 -6 -9 -6 -29 -2 -45 6
-18 5 -28 -2 -28 -7 0 -6 -5 1 -14 9 -10 9 -16 1 -21 -8 -5 -8 -10 0 -20 8
-10 8 -15 0 -20 -8 -5 -8 -10 0 -20 8 -10 8 -15 0 -20 -8 -5 -8 -11 1 -21 6
-8 7 -14 2 -14 -5 0 -9 -10 -8 -22 3 -38 -15 -101 -38 -135 -20 -30 -117 -94
-117 -77 0 3 -7 1 -15 -6 -8 -6 -19 -9 -25 -5 -5 3 -10 2 -10 -3 0 -5 -10 -8
-22 -8 -13 1 -27 0 -32 -2 -19 -10 -85 -8 -79 2 5 8 2 8 -8 0 -19 -14 -58 -15
-81 -3 -12 7 -18 6 -18 -1 0 -6 -4 -9 -9 -6 -5 3 -26 8 -47 12 -22 3 -47 10
-56 15 -10 5 -18 7 -18 4 0 -3 -21 6 -47 20 -53 27 -103 68 -103 85 0 5 -4 10
-8 10 -15 0 -35 75 -37 136 -1 33 -5 65 -8 72 -4 6 -4 13 1 16 4 2 7 33 7 68
-1 35 0 66 1 69 2 4 752 5 777 0z"/>
</g>
</svg>
